<?xml version="1.0" encoding="utf-8"?>
<!-- Generator: Adobe Illustrator 26.2.1, SVG Export Plug-In . SVG Version: 6.00 Build 0)  -->
<svg version="1.1" id="Layer_1" xmlns="http://www.w3.org/2000/svg" xmlns:xlink="http://www.w3.org/1999/xlink" x="0px" y="0px"
	 viewBox="0 0 200.1 90.8" style="enable-background:new 0 0 200.1 90.8;" xml:space="preserve">
<style type="text/css">
	.st0{fill:#A4ADD3;}
	.st1{fill:#705D97;}
	.st2{opacity:8.000000e-02;}
</style>
<g>
	<g>
		<path class="st0" d="M200,90.8c0,0-32.7-3.2-50.6-3.2S101.1,90,101.1,90s3.1-44.7,4.8-52s7.7-21.3,16.9-27.9S134.8,0,145.6,0
			s25.4,6.4,34.6,21.4S200,90.8,200,90.8z"/>
		<path class="st1" d="M101.6,83.2c0,0,26.1-4.4,49-4.4s47.9,4.4,47.9,4.4c1,4.7,1.6,7.6,1.6,7.6s-32.7-3.2-50.6-3.2
			S101.2,90,101.2,90S101.2,87.3,101.6,83.2z"/>
	</g>
	<g class="st2">
		<path d="M151.6,65.7l-3.2,2.6c-1.2,1.2-1.9,2.8-2,4.5h9.8v-2.6H150c0.6-0.8,1.3-1.4,2.1-1.9c1-0.6,1.9-1.3,2.7-2.1
			c0.8-0.9,1.3-2.1,1.3-3.3c0-1.3-0.5-2.5-1.4-3.3c-1-0.8-2.2-1.2-3.5-1.2c-3.1,0-4.7,1.7-4.7,5h2.7c0-1.8,0.7-2.7,2.1-2.7
			c1-0.1,1.9,0.6,2,1.6c0,0.2,0,0.3,0,0.5C153.2,64,152.6,65.1,151.6,65.7z"/>
		<path d="M134,67.2h3c1.5,0,2.3,0.6,2.4,1.9s0.2,2.5,0.3,3.8h3.3v-0.4c-0.5-0.2-0.7-0.7-0.7-1.5c0-0.3,0-0.5,0.1-0.8v-0.7
			c0.2-1.4-0.6-2.8-1.8-3.5c1.4-0.5,2.3-1.9,2.2-3.4c0.1-1.2-0.4-2.3-1.3-3c-0.9-0.7-2-1.1-3.2-1H131v14.2h3V67.2z M134,61h3.7
			c1.4,0,2.1,0.6,2.1,1.9c0,1.3-0.8,1.9-2.3,1.9H134V61z"/>
	</g>
</g>
<g>
	<g>
		<path class="st0" d="M0.1,90.8c0,0,32.7-3.2,50.6-3.2S99,90,99,90s-3.1-44.7-4.8-52s-7.7-21.3-16.9-27.9S65.3,0,54.5,0
			S29.1,6.4,19.9,21.4S0.1,90.8,0.1,90.8z"/>
		<path class="st1" d="M98.5,83.2c0,0-26.1-4.4-49-4.4S1.6,83.2,1.6,83.2c-1,4.7-1.6,7.6-1.6,7.6s32.7-3.2,50.6-3.2S98.9,90,98.9,90
			S98.9,87.3,98.5,83.2z"/>
	</g>
	<g class="st2">
		<path d="M64.6,65.7l-3.2,2.6c-1.2,1.2-1.9,2.8-2,4.5h9.8v-2.6H63c0.6-0.8,1.3-1.4,2.1-1.9c1-0.6,1.9-1.3,2.7-2.1
			c0.8-0.9,1.3-2.1,1.3-3.3c0-1.3-0.5-2.5-1.4-3.3c-1-0.8-2.2-1.2-3.5-1.2c-3.1,0-4.7,1.7-4.7,5h2.7c0-1.8,0.7-2.7,2.1-2.7
			c1-0.1,1.9,0.6,2,1.6c0,0.2,0,0.3,0,0.5C66.3,64,65.6,65.1,64.6,65.7z"/>
		<polygon points="56.1,70.2 49,70.2 49,58.5 46,58.5 46,72.8 56.1,72.8 		"/>
	</g>
</g>
</svg>
